# xmcd
#
# Track frame offsets:
#	150
#	19507
#	39220
#	53532
#	72090
#	88620
#	104882
#	121130
#	134925
#	151862
#	168797
#	188157
#	207870
#	222184
#	240745
#	257272
#	273532
#	289782
#	303580
#	320515
#
# Disc length: 4499 seconds
#
# Revision: 1
# Processed by: cddbd v1.5.2PL0 Copyright (c) Steve Scherf et al.
# Submitted via: audiograbber 1.83.01
#
DISCID=19119114
DTITLE=Various Artist - THC0507
DYEAR=2005
DGENRE=Country - Karaoke
TTITLE0=Strait, George w/vocal - You'll Be There
TTITLE1=Rascal Flatts, The w/vocal - Fast Cars And Freedom
TTITLE2=Jackson, Alan w/vocal - Talkin' Song Repair Blues, The
TTITLE3=Van Zant w/vocal - Help Somebody
TTITLE4=Rimes, LeAnn w/vocal - Probably Wouldn't Be This Way
TTITLE5=Hot Apple Pie w/vocal - Hillbillies
TTITLE6=Sugarland w/vocal - Something More
TTITLE7=Lucas, Lauren w/vocal - What You Ain't Gonna Get
TTITLE8=O'Neal, Jamie w/vocal - Somebody's Hero
TTITLE9=Aldean, Jason w/vocal - Hicktown
TTITLE10=Strait, George - You'll Be There
TTITLE11=Rascal Flatts, The - Fast Cars And Freedom
TTITLE12=Jackson, Alan - Talkin' Song Repair Blues, The
TTITLE13=Van Zant - Help Somebody
TTITLE14=Rimes, LeAnn - Probably Wouldn't Be This Way
TTITLE15=Hot Apple Pie - Hillbillies
TTITLE16=Sugarland - Something More
TTITLE17=Lucas, Lauren - What You Ain't Gonna Get
TTITLE18=O'Neal, Jamie - Somebody's Hero
TTITLE19=Aldean, Jason - Hicktown
EXTD=
EXTT0=
EXTT1=
EXTT2=
EXTT3=
EXTT4=
EXTT5=
EXTT6=
EXTT7=
EXTT8=
EXTT9=
EXTT10=
EXTT11=
EXTT12=
EXTT13=
EXTT14=
EXTT15=
EXTT16=
EXTT17=
EXTT18=
EXTT19=
PLAYORDER=
